<?xml version="1.0" encoding="UTF-8" standalone="no"?><!DOCTYPE svg PUBLIC "-//W3C//DTD SVG 1.1//EN" "http://www.w3.org/Graphics/SVG/1.1/DTD/svg11.dtd"><svg width="100%" height="100%" viewBox="0 0 512 512" version="1.1" xmlns="http://www.w3.org/2000/svg" xmlns:xlink="http://www.w3.org/1999/xlink" xml:space="preserve" xmlns:serif="http://www.serif.com/" style="fill-rule:evenodd;clip-rule:evenodd;stroke-linejoin:round;stroke-miterlimit:1.41421;"><path d="M383.184,129.153c-35.53,-6.25 -98.06,14.36 -127.18,30.81c-29.12,-16.45 -91.66,-37.07 -127.19,-30.81c-81.24,14.3 -107.419,124.49 -93.09,205.6c14.33,81.11 61.3,177.25 156.69,177.25c12.06,0 24.12,-4.61 34.44,-10.34c18.08,-10.03 40.23,-10.03 58.31,0c10.32,5.73 22.38,10.34 34.43,10.34c95.39,0 142.36,-96.14 156.68,-177.25c14.33,-81.11 -11.83,-191.3 -93.09,-205.6Zm-55.55,-41.53c30.56,-30.56 23.72,-86.97 23.72,-86.97c0,0 -56.41,-6.85 -86.97,23.72c-30.57,30.57 -23.72,86.97 -23.72,86.97c0,0 56.4,6.85 86.97,-23.72Z" style="fill:#701028;fill-rule:nonzero;"/></svg>