<?xml version="1.0" encoding="UTF-8" standalone="no"?><!DOCTYPE svg PUBLIC "-//W3C//DTD SVG 1.1//EN" "http://www.w3.org/Graphics/SVG/1.1/DTD/svg11.dtd"><svg width="100%" height="100%" viewBox="0 0 512 512" version="1.1" xmlns="http://www.w3.org/2000/svg" xmlns:xlink="http://www.w3.org/1999/xlink" xml:space="preserve" xmlns:serif="http://www.serif.com/" style="fill-rule:evenodd;clip-rule:evenodd;stroke-linejoin:round;stroke-miterlimit:1.41421;"><path d="M288.227,96.889c-6.969,-1.404 -11.462,-2.436 -11.462,-2.436l0.709,-25.419c0,0 37.819,6.668 64.871,0.816c27.051,-5.852 73.363,-34.099 73.363,-34.099l13.116,4.577l0.024,54.957c0,0 -2.264,0.379 -6.112,0.983c4.654,9.591 13.709,21.052 31.323,28.923c35.692,15.95 82.102,62.905 43.194,171.076c-38.909,108.17 -151.96,169.383 -220.772,178.713c-68.812,9.331 -116.021,-35.884 -116.021,-35.884l6.6,-29.018c0,0 30.742,-7.431 136.829,-50.582c106.087,-43.15 102.479,-169.179 102.236,-198.714c-0.162,-19.726 -14.78,-44.578 -24.471,-58.909c-7.103,0.802 -14.285,1.503 -20.975,1.974c0.847,3.371 1.546,7.512 2.037,12.572c3.981,41.02 16.257,26.23 31.696,62.163c15.44,35.933 -16.153,143.442 -145.898,191.407c-129.745,47.964 -220.25,-54.318 -220.25,-54.318l8.914,-21.725c0,0 28.112,-5.396 52.013,-3.001c23.901,2.396 76.617,20.711 159.323,-20.162c103.704,-51.249 85.256,-141.59 77.321,-167.703c-3.149,-0.372 -6.328,-0.797 -9.474,-1.255c-0.26,1.204 -0.558,2.47 -0.897,3.8c-9.17,35.94 5.742,27.173 7.826,62.309c2.084,35.137 -55.113,113.804 -179.603,114.74c-124.489,0.936 -143.687,-113.181 -143.687,-113.181l14.188,-15.664c0,0 25.445,4.027 44.945,13.361c19.499,9.335 47.114,29.284 129.926,23.291c78.371,-5.672 97.357,-85.091 99.168,-93.592Z" style="fill:#706010;"/></svg>