<?xml version="1.0" encoding="UTF-8" standalone="no"?><!DOCTYPE svg PUBLIC "-//W3C//DTD SVG 1.1//EN" "http://www.w3.org/Graphics/SVG/1.1/DTD/svg11.dtd"><svg width="100%" height="100%" viewBox="0 0 512 512" version="1.1" xmlns="http://www.w3.org/2000/svg" xmlns:xlink="http://www.w3.org/1999/xlink" xml:space="preserve" xmlns:serif="http://www.serif.com/" style="fill-rule:evenodd;clip-rule:evenodd;stroke-linejoin:round;stroke-miterlimit:1.41421;"><path d="M353.646,0.085c1.354,-0.166 1.894,-0.039 2.543,-0.029l0.213,0.023l0.234,0.01c0.358,0.045 0.693,0.091 1.008,0.139c2.41,0.334 3.66,0.793 4.892,1.484l0.087,0.049l0.03,0.018c0.4,0.227 0.798,0.479 1.239,0.762l0.05,0.031l0.151,0.099l0.059,0.039c9.107,6.057 9.061,21.195 -1.163,27.616c-2.3,1.445 -2.712,1.736 -3.762,2.429c-29.254,19.502 -51.592,48.444 -58.528,84.38c-10.166,52.678 7.036,108.125 32.531,152.077c30.024,-8.05 61.276,-10.319 88.279,-4.354c72.001,15.905 88.158,112.37 51.825,176.509c-36.334,64.138 -118.551,89.191 -183.487,55.912c-19.824,-10.16 -37.295,-25.67 -50.5,-43.811c-15.532,19.52 -37.575,35.257 -61.845,42.886c-61.402,19.3 -128.813,-13.685 -150.442,-73.613c-21.628,-59.929 7.053,-141.459 72.066,-143.553c16.354,-0.526 34.457,2.246 52.523,7.705c5.221,-31.036 13.878,-61.517 25.222,-90.81c31.526,-81.406 90.271,-154.786 170.27,-193.918c0,0 0.09,-0.047 0.251,-0.126c1.707,-1.054 3.25,-1.789 6.254,-1.954Zm-67.601,312.447c-8.155,3.245 -14.905,10.192 -21.36,16.906c-22.848,23.767 -32.649,60.064 -20.808,91.642c0,0 3.517,7.533 10.044,9.698c11.514,3.818 24.374,-8.609 19.896,-21.725c-8.128,-24.624 4.595,-52.499 27.098,-68.197c0,0 7.206,-6.511 6.883,-13.926c-0.419,-9.592 -10.617,-17.587 -20.469,-14.818c-0.434,0.122 -0.859,0.271 -1.284,0.42Zm-151.354,-9.995c-7.14,-2.787 -15.587,-2.373 -23.708,-1.932c-28.744,1.561 -56.624,18.893 -67.876,46.107c0,0 -2.243,6.904 0.634,12.174c5.076,9.297 20.689,9.024 25.643,-2.017c9.481,-20.561 34.208,-30.777 57.925,-27.392c0,0 8.48,0.136 12.69,-4.79c5.448,-6.373 3.7,-17.552 -4.239,-21.654c-0.35,-0.18 -0.71,-0.338 -1.069,-0.496Zm137.639,-203.959c-4.809,5.347 -9.43,10.872 -13.848,16.563c-41.152,52.996 -66.57,117.193 -76.159,183.664c17.473,8.354 33.88,19.055 47.425,31.487c2.455,-3.29 5.209,-6.47 8.275,-9.522c16.453,-16.375 39.109,-30.61 64.216,-41.023c-15.063,-27.767 -25.757,-57.951 -31.778,-88.343c-6.006,-30.316 -6.261,-62.702 1.869,-92.826Z" style="fill:#601070;"/></svg>