<?xml version="1.0" encoding="UTF-8" standalone="no"?><!DOCTYPE svg PUBLIC "-//W3C//DTD SVG 1.1//EN" "http://www.w3.org/Graphics/SVG/1.1/DTD/svg11.dtd"><svg width="100%" height="100%" viewBox="0 0 512 512" version="1.1" xmlns="http://www.w3.org/2000/svg" xmlns:xlink="http://www.w3.org/1999/xlink" xml:space="preserve" xmlns:serif="http://www.serif.com/" style="fill-rule:evenodd;clip-rule:evenodd;stroke-linejoin:round;stroke-miterlimit:1.41421;"><path d="M489.038,22.963c-23.094,-23.093 -54.39,-28.893 -75.091,-16.834c-58.906,34.312 -181.25,-53.077 -321.073,86.746c-139.823,139.823 -52.433,262.166 -86.745,321.07c-12.059,20.702 -6.26,51.999 16.833,75.093c23.095,23.095 54.392,28.891 75.095,16.832c58.901,-34.31 181.246,53.079 321.068,-86.743c139.822,-139.822 52.435,-262.167 86.746,-321.071c12.059,-20.702 6.261,-51.999 -16.833,-75.093Zm-245.157,72.559c-58.189,14.547 -133.808,90.155 -148.358,148.358c-1.817,7.27 -8.342,12.124 -15.511,12.124c-1.284,0 -2.59,-0.156 -3.893,-0.481c-8.572,-2.144 -13.784,-10.83 -11.642,-19.403c17.424,-69.693 101.839,-154.19 171.642,-171.642c8.575,-2.143 17.261,3.069 19.403,11.642c2.142,8.573 -3.069,17.259 -11.641,19.402Z" style="fill:#107040;fill-rule:nonzero;"/></svg>